<svg width="80" height="34" viewBox="0 0 80 34" fill="none" xmlns="http://www.w3.org/2000/svg">
<g clip-path="url(#clip0_236_190)">
<path d="M10.3889 0.716232H14.525L17.1307 8.36977L19.7364 0.716232H23.9063L19.9658 11.2369L22.8968 18.629L29.443 0.650391H34.3292L24.9159 23.7766H21.137L17.1307 14.07L13.1263 23.7766H9.34746L0 0.650391H4.82037L11.3985 18.629L14.2656 11.2369L10.3889 0.716232Z" fill="#9C9EA2"/>
<path fill-rule="evenodd" clip-rule="evenodd" d="M79.9733 22.6952C72.7846 20.4027 63.1319 19.9818 52.9066 21.9889C41.8971 24.1497 32.5636 28.6648 26.8354 33.9999C34.5987 30.8535 44.5168 27.9406 55.4804 25.7897C64.2971 24.0599 72.6729 23.0384 79.9713 22.6952" fill="#D0AD6C"/>
<path fill-rule="evenodd" clip-rule="evenodd" d="M46.0152 12.7033C45.5782 11.4942 44.858 10.6243 43.8504 10.0976C42.8428 9.56888 41.7634 9.45914 40.6102 9.7684C40.0436 9.92003 39.5408 10.1614 39.1019 10.4926C38.6629 10.8239 38.3018 11.2189 38.0205 11.6758C37.7391 12.1327 37.5436 12.6455 37.4379 13.2141C37.3321 13.7827 37.3381 14.3753 37.4598 14.9958L46.0172 12.7033H46.0152ZM41.6318 24.1517C41.2946 24.1457 40.9614 24.1198 40.6322 24.0739C39.441 23.9103 38.3656 23.5412 37.402 22.9666C36.4383 22.392 35.6163 21.6477 34.9319 20.728C34.2476 19.8102 33.7528 18.7847 33.4495 17.6514C33.1342 16.4762 33.0385 15.317 33.1582 14.1718C33.2779 13.0265 33.6111 11.9591 34.1558 10.9715C34.7005 9.98188 35.4507 9.11198 36.4064 8.36179C37.3621 7.6116 38.5133 7.05494 39.854 6.69581C41.1968 6.33667 42.4598 6.24489 43.6409 6.42247C44.8241 6.60004 45.8915 6.97713 46.8432 7.55374C47.7949 8.13035 48.6029 8.88054 49.2673 9.80431C49.9297 10.7281 50.4106 11.7456 50.7099 12.8569C50.7837 13.1303 50.8475 13.3937 50.9054 13.647C50.9632 13.9024 50.9932 14.1179 50.9952 14.2975L38.2539 17.7112C38.4913 18.3437 38.8026 18.8784 39.1896 19.3154C39.5767 19.7503 40.0157 20.0935 40.5105 20.3449C41.0053 20.5943 41.528 20.7459 42.0827 20.7998C42.6373 20.8537 43.186 20.8078 43.7307 20.6621C44.5687 20.4367 45.3069 20.0217 45.9414 19.4131C46.5758 18.8046 46.9409 18.1282 47.0327 17.384L50.9214 17.4219C50.65 18.8425 49.9577 20.1354 48.8424 21.3006C48.577 21.5779 48.2917 21.8353 47.9844 22.0727C45.7718 22.6753 43.6489 23.3716 41.6318 24.1497V24.1517Z" fill="#9C9EA2"/>
<path fill-rule="evenodd" clip-rule="evenodd" d="M63.9995 19.6646V0H68.349V19.6965C66.9344 19.6346 65.4819 19.6227 63.9995 19.6666" fill="#9C9EA2"/>
<path fill-rule="evenodd" clip-rule="evenodd" d="M53.6743 20.7799V0H58.0238V20.1155C56.5913 20.2891 55.1388 20.5105 53.6743 20.7799Z" fill="#9C9EA2"/>
</g>
<defs>
<clipPath id="clip0_236_190">
<rect width="79.9731" height="34" fill="white"/>
</clipPath>
</defs>
</svg>
